<svg width="28" height="26" viewBox="0 0 28 26" fill="none" xmlns="http://www.w3.org/2000/svg">
<path d="M26.8438 5.86251C26.4249 4.89263 25.8209 4.01373 25.0656 3.27502C24.3098 2.5341 23.4186 1.9453 22.4406 1.54065C21.4265 1.11938 20.3388 0.903744 19.2406 0.906272C17.7 0.906272 16.1969 1.32815 14.8906 2.12502C14.5781 2.31564 14.2812 2.52502 14 2.75314C13.7188 2.52502 13.4219 2.31564 13.1094 2.12502C11.8031 1.32815 10.3 0.906272 8.75937 0.906272C7.65 0.906272 6.575 1.11877 5.55937 1.54065C4.57812 1.9469 3.69375 2.53127 2.93437 3.27502C2.17811 4.0129 1.57399 4.89201 1.15625 5.86251C0.721875 6.87189 0.5 7.94376 0.5 9.04688C0.5 10.0875 0.7125 11.1719 1.13438 12.275C1.4875 13.1969 1.99375 14.1531 2.64062 15.1188C3.66563 16.6469 5.075 18.2406 6.825 19.8562C9.725 22.5344 12.5969 24.3844 12.7188 24.4594L13.4594 24.9344C13.7875 25.1437 14.2094 25.1437 14.5375 24.9344L15.2781 24.4594C15.4 24.3812 18.2687 22.5344 21.1719 19.8562C22.9219 18.2406 24.3313 16.6469 25.3563 15.1188C26.0031 14.1531 26.5125 13.1969 26.8625 12.275C27.2844 11.1719 27.4969 10.0875 27.4969 9.04688C27.5 7.94376 27.2781 6.87189 26.8438 5.86251Z" fill="#5E49FF"/>
</svg>
